{"title":"Ant Man(2015)MPEG-4(720p)[DaScubaDude]","uid":13218925,"size":1176433211,"categoryP":"video","categoryS":"movies","magnet":"?xt=urn:btih:492f25c85c344b1683d816751fcfdb6724de1c12&amp;dn=Ant+Man%282015%29MPEG-4%28720p%29%5BDaScubaDude%5D&amp;tr=udp%3A%2F%2Ftracker.leechers-paradise.org%3A6969&amp;tr=udp%3A%2F%2Fzer0day.ch%3A1337&amp;tr=udp%3A%2F%2Fopen.demonii.com%3A1337&amp;tr=udp%3A%2F%2Ftracker.coppersurfer.tk%3A6969&amp;tr=udp%3A%2F%2Fexodus.desync.com%3A6969","seeders":0,"leechers":1,"uploader":"dascuba","files":1,"time":1452732943,"description":"Ant-Man (2015)\r\nPG-13  |  117 min  |  Action, Adventure, Sci-Fi  |  17 July 2015 (USA)\r\n7.5 Your rating:   -/10   Ratings: 7.5/10 from 216,558 users   Metascore: 64/100\r\nReviews: 493 user | 488 critic | 43 from Metacritic.com\r\nArmed with a super-suit with the astonishing ability to shrink in scale but increase in strength, cat burglar Scott Lang must embrace his inner hero and help his mentor, Dr. Hank Pym, plan and pull off a heist that will save the world.\r\n\r\nDirector: Peyton Reed\r\nWriters: Edgar Wright (screenplay), Joe Cornish (screenplay), 7 more credits »\r\nStars: Paul Rudd, Michael Douglas, Corey Stoll\r\nGeneral\r\nComplete name                            :Ant ManANTMAN_Title1.mp4\r\nFormat                                   : MPEG-4\r\nFormat profile                           : Base Media\r\nCodec ID                                 : isom\r\nFile size                                : 1.10 GiB\r\nDuration                                 : 1h 57mn\r\nOverall bit rate                         : 1 341 Kbps\r\nMovie name                               : ANTMAN\r\nGenre                                    : Action\r\nWriting application                      : Lavf54.6.100\r\n\r\nVideo\r\nID                                       : 1\r\nFormat                                   : AVC\r\nFormat/Info                              : Advanced Video Codec\r\nFormat profile                           :   \r\nFormat settings, CABAC                   : No\r\nFormat settings, ReFrames                : 6 frames\r\nCodec ID                                 : avc1\r\nCodec ID/Info                            : Advanced Video Coding\r\nDuration                                 : 1h 57mn\r\nBit rate                                 : 1 206 Kbps\r\nWidth                                    : 720 pixels\r\nHeight                                   : 404 pixels\r\nDisplay aspect ratio                     : 16:9\r\nFrame rate mode                          : Constant\r\nFrame rate                               : 29.970 fps\r\nColor space                              : YUV\r\nChroma subsampling                       : 4:2:0\r\nBit depth                                : 8 bits\r\nScan type                                : Progressive\r\nBits/(Pixel*Frame)                       : 0.138\r\nStream size                              : 1 009 MiB (90%)\r\n\r\nAudio\r\nID                                       : 2\r\nFormat                                   : AAC\r\nFormat/Info                              : Advanced Audio Codec\r\nFormat profile                           : LC\r\nCodec ID                                 : 40\r\nDuration                                 : 1h 57mn\r\nBit rate mode                            : Constant\r\nBit rate                                 : 128 Kbps\r\nChannel(s)                               : 2 channels\r\nChannel positions                        : Front: L R\r\nSampling rate                            : 44.1 KHz\r\nCompression mode                         : Lossy\r\nStream size                              : 107 MiB (10%)","torrent":{"xt":"urn:btih:492f25c85c344b1683d816751fcfdb6724de1c12","amp;dn":"Ant+Man%282015%29MPEG-4%28720p%29%5BDaScubaDude%5D","amp;tr":["udp%3A%2F%2Ftracker.leechers-paradise.org%3A6969","udp%3A%2F%2Fzer0day.ch%3A1337","udp%3A%2F%2Fopen.demonii.com%3A1337","udp%3A%2F%2Ftracker.coppersurfer.tk%3A6969","udp%3A%2F%2Fexodus.desync.com%3A6969"],"infoHash":"492f25c85c344b1683d816751fcfdb6724de1c12","infoHashBuffer":{"type":"Buffer","data":[73,47,37,200,92,52,75,22,131,216,22,117,31,207,219,103,36,222,28,18]},"announce":[],"urlList":[]}}